<svg width="24" height="24" viewBox="0 0 24 24" fill="none" xmlns="http://www.w3.org/2000/svg">
  <g transform="translate(1, 1)">
    <path d="M11 21C16.5228 21 21 16.5228 21 11C21 5.47715 16.5228 1 11 1C5.47715 1 1 5.47715 1 11C1 16.5228 5.47715 21 11 21Z" stroke="currentColor" stroke-width="2" stroke-linecap="round" stroke-linejoin="round"/>
  </g>
  <g transform="translate(7.76, 7.76)">
    <path d="M9.48003 1.00003L7.67603 6.41103C7.57784 6.70561 7.41242 6.97329 7.19285 7.19285C6.97329 7.41242 6.70561 7.57784 6.41103 7.67603L1.00003 9.48003L2.80403 4.06903C2.90221 3.77444 3.06764 3.50677 3.2872 3.2872C3.50677 3.06764 3.77444 2.90221 4.06903 2.80403L9.48003 1.00003Z" stroke="currentColor" stroke-width="2" stroke-linecap="round" stroke-linejoin="round"/>
  </g>
</svg>
