<svg width="40" height="40" viewBox="0 0 40 40" fill="none" xmlns="http://www.w3.org/2000/svg">
<path d="M0 16.4C0 7.34253 7.34253 0 16.4 0H23.6C32.6575 0 40 7.34253 40 16.4V23.6C40 32.6575 32.6575 40 23.6 40H16.4C7.34253 40 0 32.6575 0 23.6V16.4Z" fill="url(#paint0_linear_286_285)"/>
<path d="M18.0589 13.4466C18.1048 12.9636 18.3292 12.515 18.6882 12.1885C19.0472 11.8621 19.515 11.6812 20.0002 11.6812C20.4854 11.6812 20.9532 11.8621 21.3122 12.1885C21.6712 12.515 21.8955 12.9636 21.9414 13.4466C21.969 13.7587 22.0714 14.0595 22.2399 14.3236C22.4084 14.5877 22.638 14.8073 22.9093 14.9639C23.1807 15.1204 23.4857 15.2093 23.7987 15.223C24.1116 15.2367 24.4233 15.1747 24.7073 15.0425C25.1482 14.8423 25.6478 14.8133 26.1089 14.9612C26.57 15.1091 26.9596 15.4233 27.2019 15.8426C27.4441 16.2618 27.5217 16.7563 27.4195 17.2296C27.3173 17.7029 27.0426 18.1213 26.6489 18.4033C26.3926 18.5832 26.1833 18.8221 26.0389 19.1C25.8944 19.3778 25.819 19.6864 25.819 19.9995C25.819 20.3127 25.8944 20.6213 26.0389 20.8991C26.1833 21.177 26.3926 21.4159 26.6489 21.5958C27.0426 21.8778 27.3173 22.2962 27.4195 22.7695C27.5217 23.2428 27.4441 23.7372 27.2019 24.1565C26.9596 24.5758 26.57 24.89 26.1089 25.0379C25.6478 25.1858 25.1482 25.1568 24.7073 24.9566C24.4233 24.8244 24.1116 24.7624 23.7987 24.7761C23.4857 24.7898 23.1807 24.8787 22.9093 25.0352C22.638 25.1918 22.4084 25.4114 22.2399 25.6755C22.0714 25.9396 21.969 26.2404 21.9414 26.5525C21.8955 27.0355 21.6712 27.4841 21.3122 27.8106C20.9532 28.137 20.4854 28.3179 20.0002 28.3179C19.515 28.3179 19.0472 28.137 18.6882 27.8106C18.3292 27.4841 18.1048 27.0355 18.0589 26.5525C18.0314 26.2403 17.929 25.9394 17.7605 25.6752C17.592 25.411 17.3622 25.1913 17.0908 25.0347C16.8193 24.8782 16.5142 24.7893 16.2011 24.7757C15.888 24.7621 15.5763 24.8242 15.2923 24.9566C14.8513 25.1568 14.3517 25.1858 13.8906 25.0379C13.4295 24.89 13.0399 24.5758 12.7977 24.1565C12.5554 23.7372 12.4779 23.2428 12.5801 22.7695C12.6823 22.2962 12.9569 21.8778 13.3506 21.5958C13.6069 21.4159 13.8162 21.177 13.9607 20.8991C14.1051 20.6213 14.1806 20.3127 14.1806 19.9995C14.1806 19.6864 14.1051 19.3778 13.9607 19.1C13.8162 18.8221 13.6069 18.5832 13.3506 18.4033C12.9575 18.1212 12.6833 17.703 12.5813 17.2299C12.4794 16.7569 12.5569 16.2629 12.7989 15.8439C13.0409 15.4249 13.43 15.1108 13.8907 14.9627C14.3513 14.8145 14.8506 14.843 15.2914 15.0425C15.5754 15.1747 15.8871 15.2367 16.2 15.223C16.513 15.2093 16.818 15.1204 17.0894 14.9639C17.3607 14.8073 17.5903 14.5877 17.7588 14.3236C17.9273 14.0595 18.0297 13.7587 18.0573 13.4466" stroke="#51A2FF" stroke-width="1.66667" stroke-linecap="round" stroke-linejoin="round"/>
<path d="M20 22.5C21.3807 22.5 22.5 21.3807 22.5 20C22.5 18.6193 21.3807 17.5 20 17.5C18.6193 17.5 17.5 18.6193 17.5 20C17.5 21.3807 18.6193 22.5 20 22.5Z" stroke="#51A2FF" stroke-width="1.66667" stroke-linecap="round" stroke-linejoin="round"/>
<defs>
<linearGradient id="paint0_linear_286_285" x1="0" y1="0" x2="40" y2="40" gradientUnits="userSpaceOnUse">
<stop stop-color="#2B7FFF" stop-opacity="0.2"/>
<stop offset="1" stop-color="#615FFF" stop-opacity="0.2"/>
</linearGradient>
</defs>
</svg>
