<svg width="40" height="40" viewBox="0 0 40 40" fill="none" xmlns="http://www.w3.org/2000/svg">
<path d="M0 16.4C0 7.34253 7.34253 0 16.4 0H23.6C32.6575 0 40 7.34253 40 16.4V23.6C40 32.6575 32.6575 40 23.6 40H16.4C7.34253 40 0 32.6575 0 23.6V16.4Z" fill="url(#paint0_linear_286_276)"/>
<path d="M18.5566 27.5C18.7029 27.7533 18.9133 27.9637 19.1667 28.11C19.42 28.2563 19.7074 28.3333 20 28.3333C20.2925 28.3333 20.5799 28.2563 20.8333 28.11C21.0866 27.9637 21.297 27.7533 21.4433 27.5" stroke="#51A2FF" stroke-width="1.66667" stroke-linecap="round" stroke-linejoin="round"/>
<path d="M12.7182 22.7717C12.6093 22.8911 12.5375 23.0394 12.5114 23.1988C12.4853 23.3582 12.5061 23.5218 12.5713 23.6696C12.6365 23.8174 12.7432 23.943 12.8784 24.0313C13.0137 24.1196 13.1717 24.1666 13.3332 24.1667H26.6665C26.828 24.1668 26.9861 24.1199 27.1214 24.0318C27.2568 23.9437 27.3636 23.8182 27.429 23.6705C27.4943 23.5228 27.5153 23.3593 27.4894 23.1999C27.4635 23.0405 27.3919 22.892 27.2832 22.7726C26.1749 21.6301 24.9999 20.4159 24.9999 16.6667C24.9999 15.3407 24.4731 14.0689 23.5354 13.1312C22.5977 12.1935 21.326 11.6667 19.9999 11.6667C18.6738 11.6667 17.402 12.1935 16.4643 13.1312C15.5267 14.0689 14.9999 15.3407 14.9999 16.6667C14.9999 20.4159 13.824 21.6301 12.7182 22.7717Z" stroke="#51A2FF" stroke-width="1.66667" stroke-linecap="round" stroke-linejoin="round"/>
<defs>
<linearGradient id="paint0_linear_286_276" x1="0" y1="0" x2="40" y2="40" gradientUnits="userSpaceOnUse">
<stop stop-color="#2B7FFF" stop-opacity="0.2"/>
<stop offset="1" stop-color="#615FFF" stop-opacity="0.2"/>
</linearGradient>
</defs>
</svg>
