<svg width="40" height="40" viewBox="0 0 40 40" fill="none" xmlns="http://www.w3.org/2000/svg">
<path d="M0 16.4C0 7.34253 7.34253 0 16.4 0H23.6C32.6575 0 40 7.34253 40 16.4V23.6C40 32.6575 32.6575 40 23.6 40H16.4C7.34253 40 0 32.6575 0 23.6V16.4Z" fill="url(#paint0_linear_286_270)"/>
<path d="M13.3335 19.1667C15.3226 19.1667 17.2303 19.9569 18.6368 21.3634C20.0433 22.77 20.8335 24.6776 20.8335 26.6667" stroke="#51A2FF" stroke-width="1.66667" stroke-linecap="round" stroke-linejoin="round"/>
<path d="M13.3335 13.3333C16.8697 13.3333 20.2611 14.738 22.7616 17.2385C25.2621 19.739 26.6668 23.1304 26.6668 26.6666" stroke="#51A2FF" stroke-width="1.66667" stroke-linecap="round" stroke-linejoin="round"/>
<path d="M14.1668 26.6667C14.6271 26.6667 15.0002 26.2936 15.0002 25.8333C15.0002 25.3731 14.6271 25 14.1668 25C13.7066 25 13.3335 25.3731 13.3335 25.8333C13.3335 26.2936 13.7066 26.6667 14.1668 26.6667Z" stroke="#51A2FF" stroke-width="1.66667" stroke-linecap="round" stroke-linejoin="round"/>
<defs>
<linearGradient id="paint0_linear_286_270" x1="0" y1="0" x2="40" y2="40" gradientUnits="userSpaceOnUse">
<stop stop-color="#2B7FFF" stop-opacity="0.2"/>
<stop offset="1" stop-color="#615FFF" stop-opacity="0.2"/>
</linearGradient>
</defs>
</svg>
